<svg width="40" height="40" viewBox="0 0 40 40" fill="none" xmlns="http://www.w3.org/2000/svg">
<path d="M31.2627 12.47C30.7804 11.4905 30.068 10.6208 29.2026 9.95511C27.9566 8.99661 26.4046 8.46875 24.8326 8.46875H15.1674C13.5954 8.46875 12.0433 8.99661 10.7973 9.95511C9.93195 10.6208 9.21959 11.4904 8.7373 12.47C8.25491 13.4495 8 14.5443 8 15.6361V17.75H12.2656V26.375H12.9688C15.4242 26.375 17.4219 28.3727 17.4219 30.8281V31.5312H22.5781V30.8281C22.5781 28.3727 24.5758 26.375 27.0312 26.375H27.7344V17.75H32V15.6361C32 14.5443 31.7451 13.4495 31.2627 12.47ZM12.2656 16.3438H9.40625V15.6361C9.40625 13.8598 10.2468 12.1528 11.6548 11.0697C11.8496 10.9198 12.0539 10.7835 12.2656 10.6604V16.3438ZM22.1094 9.875C22.1094 11.0381 21.1631 11.9844 20 11.9844C18.8369 11.9844 17.8906 11.0381 17.8906 9.875H22.1094ZM26.3281 25.0107C23.6579 25.3313 21.5345 27.4548 21.2138 30.125H18.7862C18.4655 27.4548 16.3421 25.3313 13.6719 25.0107V10.0753C14.1581 9.94419 14.6613 9.875 15.1674 9.875H16.4844C16.4844 11.8135 18.0615 13.3906 20 13.3906C21.9385 13.3906 23.5156 11.8135 23.5156 9.875H24.8326C25.3387 9.875 25.8419 9.94419 26.3281 10.0753V25.0107ZM30.5938 16.3438H27.7344V10.6604C27.9461 10.7835 28.1504 10.9198 28.3453 11.0697C29.7532 12.1528 30.5938 13.8598 30.5938 15.6361V16.3438Z" fill="#2E3331"/>
</svg>
