<svg width="1920" height="766" viewBox="0 0 1920 766" fill="none" xmlns="http://www.w3.org/2000/svg">
<g clip-path="url(#clip0_358_1815)">
<path d="M1168.19 272.079C1183.11 260.139 1197.86 247.883 1213.03 236.234C1260.3 200.004 1308.8 165.562 1364.18 142.939C1384.76 134.22 1406.49 128.537 1428.67 126.07C1469.86 122.234 1499.09 151.667 1499.19 193.185C1498.56 219.288 1489.87 244.589 1474.34 265.614C1440.37 315.945 1396.27 356.784 1350.16 395.321C1220.82 503.991 1078.58 596.177 926.701 669.757C904.865 680.273 881.757 688.2 859.026 696.701C847.932 700.81 835.695 700.428 824.917 695.637C814.483 691.327 808.711 684.355 809.364 673.386C810.429 655.803 810.099 637.557 814.671 620.785C830.288 563.86 846.263 506.929 865.073 450.991C883.883 395.053 904.985 339.083 927.484 284.133C959.977 204.622 998.414 127.972 1049.75 58.6245C1078.11 20.3315 1109.97 -14.7997 1150.7 -40.0963C1163.25 -47.9863 1176.83 -54.0796 1191.05 -58.1976C1217.12 -65.3441 1238.96 -55.0902 1252.76 -31.6404C1261.7 -15.217 1266.22 3.27897 1265.86 22.0259C1266.24 62.3484 1256.96 102.217 1238.78 138.274C1218.14 180.167 1194.58 220.729 1172.28 261.807C1170.46 264.965 1168.66 268.069 1166.84 271.227L1168.19 272.079Z" fill="#F6DCB8"/>
</g>
<defs>
<clipPath id="clip0_358_1815">
<rect width="1920" height="766" fill="white"/>
</clipPath>
</defs>
</svg>
