<svg width="40" height="40" viewBox="0 0 40 40" fill="none" xmlns="http://www.w3.org/2000/svg">
<path d="M32 17.2743L28.7299 12.2374L28.7217 12.225C27.5427 10.4911 25.5869 9.45605 23.4904 9.45605H16.5096C14.4131 9.45605 12.4575 10.4911 11.2785 12.225L8 17.2743L12.268 21.6897V30.5432H27.732V21.6897L32 17.2743ZM22.7977 10.8619L22.6737 11.4816C22.4197 12.7516 21.2953 13.6735 20 13.6735C18.7047 13.6735 17.5803 12.7516 17.3263 11.4816L17.2023 10.8619H22.7977ZM26.3261 29.1373H13.6739V17.188H12.268V19.6669L9.78821 17.1016L12.4449 13.0096C13.2234 11.8681 14.4352 11.1176 15.7796 10.9163L15.9477 11.7571C16.3328 13.6821 18.0369 15.0792 20 15.0792C21.9631 15.0792 23.6672 13.6821 24.0523 11.7571L24.2204 10.9163C25.5646 11.1176 26.7764 11.8679 27.5551 13.0094L30.2118 17.1016L27.732 19.6669V17.188H26.3261V29.1373Z" fill="#2E3331"/>
<path d="M21.7435 17.8906C20.9989 17.8906 20.4176 18.2305 19.9997 18.697C19.5819 18.2305 19.0005 17.8906 18.256 17.8906C16.884 17.8906 15.8094 19.0308 15.8094 20.4865C15.8094 22.2883 17.3738 23.2932 19.9997 25.5688C22.5603 23.3497 24.1901 22.2991 24.1901 20.4865C24.1901 19.0308 23.1155 17.8906 21.7435 17.8906ZM19.9997 23.7125C18.2751 22.2462 17.2153 21.4447 17.2153 20.4865C17.2153 19.8951 17.5727 19.2965 18.256 19.2965C18.9225 19.2965 19.2307 20.0287 19.3092 20.2532L19.474 20.6555H20.5256L20.6902 20.2532C20.7688 20.0287 21.0769 19.2965 21.7436 19.2965C22.4268 19.2965 22.7844 19.8951 22.7844 20.4865C22.7842 21.4284 21.8086 22.1746 19.9997 23.7125Z" fill="#2E3331"/>
</svg>
