<svg width="152" height="152" viewBox="0 0 152 152" fill="none" xmlns="http://www.w3.org/2000/svg">
<path d="M76 30.1254L29.5 66.8754V102.875H122.5V66.8754L76 30.1254Z" fill="#F6DCB8"/>
<path d="M122.5 122.375H29.5V74.3754L76 98.3754L122.5 74.3754V122.375Z" fill="#EBF2F5"/>
<path d="M29.5 122.375L76 98.3754L122.5 122.375H29.5Z" fill="#C4E6F5"/>
<path d="M121 66.8755V73.4622L76 96.688L31 73.4622V67.6013L76 32.0364L79.8159 35.0533L81.6763 32.6992L76 28.2146L28 66.1497V123.875H124V66.8755H121ZM31 76.8386L72.7297 98.3755L31 119.914V76.8386ZM35.6772 120.875L76 100.063L116.323 120.875H35.6772ZM121 119.914L79.2703 98.3755L121 76.8386V119.914Z" fill="#2E3331"/>
<path d="M68.0869 68.311C76.3501 64.9653 85.5881 64.9448 93.866 68.2554L82.5515 39.5847C78.7649 47.656 72.0039 53.9497 63.6829 57.1497L49.7324 62.6545L54.1365 73.8174L68.0869 68.311Z" fill="white"/>
<path d="M59.2949 70.5488L64.876 68.3464L70.2527 81.9702L64.6709 84.1726L59.2949 70.5488Z" fill="#78909C"/>
<path d="M63.6829 57.1492L49.7295 62.6541L54.1335 73.8169L68.0869 68.3105L63.6829 57.1492Z" fill="#90A4AE"/>
<path d="M43.8535 68.2L46.644 67.0984L48.8464 72.6794L46.0559 73.781L43.8535 68.2Z" fill="white"/>
<path d="M63.1311 55.7529L47.7832 61.8115L53.2896 75.7612L58.8713 73.5596L63.821 86.1177L72.1926 82.8174L67.2429 70.2593L68.6375 69.7092C76.5359 66.4844 85.3799 66.4617 93.2944 69.6462L96.5574 70.9961L82.6523 35.7534L81.1868 38.9622C77.5796 46.6929 71.1035 52.7156 63.1311 55.7529ZM54.9785 71.8721L51.679 63.5005L62.8403 59.095L66.1399 67.4665L54.9785 71.8721ZM68.3064 81.1255L65.5166 82.2263L61.6611 72.4617L64.4524 71.3608L68.3064 81.1255ZM91.2561 65.7417C83.937 63.5957 76.1243 63.8352 68.9495 66.4258L65.6016 57.9414C72.6108 54.9333 78.4812 49.7727 82.363 43.2073L91.2561 65.7417Z" fill="#2E3331"/>
<path d="M114.83 45.6133C117.484 52.2688 117.362 59.7095 114.494 66.2756L117.246 67.4753C123.834 52.2739 116.864 34.6086 101.672 28L100.472 30.751C107.051 33.5884 112.221 38.9402 114.83 45.6133Z" fill="#2E3331"/>
<path d="M106.464 48.9143C108.231 53.3506 108.15 58.3098 106.24 62.686L109 63.8755C113.6 53.2349 108.719 40.8789 98.0891 36.2544L96.8887 39.0068C101.276 40.8979 104.723 44.4656 106.464 48.9143Z" fill="#2E3331"/>
<path d="M97.9817 59.1023L100.735 60.3027C103.369 54.2207 100.58 47.155 94.5034 44.5103L93.3037 47.2627C97.8608 49.2439 99.9541 54.5408 97.9817 59.1023Z" fill="#2E3331"/>
</svg>
