<svg width="40" height="40" viewBox="0 0 40 40" fill="none" xmlns="http://www.w3.org/2000/svg">
<path d="M22.4229 15.625H24.7106V17.0352H22.4229V15.625Z" fill="#2E3331"/>
<path d="M16.5557 15.6406H17.9659V17.0185H16.5557V15.6406Z" fill="#2E3331"/>
<path d="M16.5557 18.8643H17.9659V20.2422H16.5557V18.8643Z" fill="#2E3331"/>
<path d="M16.5557 22.0879H17.9659V23.4657H16.5557V22.0879Z" fill="#2E3331"/>
<path d="M16.5557 25.3105H17.9659V26.6884H16.5557V25.3105Z" fill="#2E3331"/>
<path d="M26.4372 8H13.5629C11.041 8 8.9893 10.0517 8.9893 12.5736V25.9687H12.4206V32H27.5795V25.9687H31.0107V12.5736C31.0107 10.0517 28.9591 8 26.4372 8ZM20.8336 9.41019H23.6991V9.5804C23.6991 10.3704 23.0564 11.0131 22.2664 11.0131C21.4764 11.0131 20.8337 10.3704 20.8337 9.5804V9.41019H20.8336ZM19.3755 9.41019V9.5804C19.3755 10.3704 18.7328 11.0131 17.9428 11.0131C17.1528 11.0131 16.51 10.3704 16.51 9.5804V9.41019H19.3755ZM10.3995 24.5585V23.0455H12.4206V24.5585H10.3995ZM13.8308 13.1753H12.4206V21.6353H10.3995V12.5736C10.3995 10.8293 11.8186 9.41019 13.5629 9.41019H15.0998V9.5804C15.0998 11.148 16.3751 12.4233 17.9427 12.4233C18.4848 12.4233 18.9918 12.2706 19.4234 12.0062V30.5897H13.8308V13.1753ZM29.6006 24.5585H27.5795V23.0455H29.6006V24.5585ZM27.5795 21.6353V13.1753H26.1693V30.5898H20.8336V12.0344C21.2546 12.2812 21.7441 12.4233 22.2663 12.4233C23.8339 12.4233 25.1092 11.148 25.1092 9.5804V9.41019H26.4372C28.1814 9.41019 29.6005 10.8293 29.6005 12.5736V21.6353H27.5795Z" fill="#2E3331"/>
</svg>
