<svg width="140" height="68" viewBox="0 0 140 68" fill="none" xmlns="http://www.w3.org/2000/svg">
<path d="M2.7395 30.1071C2.98242 29.772 3.31329 29.4998 3.73212 29.2904C4.15933 29.0726 4.6326 28.9637 5.15195 28.9637C5.76344 28.9637 6.3163 29.1103 6.81052 29.4034C7.30473 29.6966 7.69425 30.1155 7.97905 30.6599C8.26385 31.196 8.40626 31.8117 8.40626 32.507C8.40626 33.2022 8.26385 33.8263 7.97905 34.3791C7.69425 34.9236 7.30055 35.3508 6.79795 35.6607C6.30373 35.9623 5.75507 36.1131 5.15195 36.1131C4.61585 36.1131 4.13839 36.0084 3.71956 35.799C3.30911 35.5895 2.98242 35.3215 2.7395 34.9948V36H1.3071L1.3071 26.702H2.7395V30.1071ZM6.94873 32.507C6.94873 32.0295 6.84821 31.619 6.64717 31.2756C6.45451 30.9238 6.19484 30.6599 5.86815 30.484C5.54984 30.2997 5.2064 30.2076 4.83783 30.2076C4.47764 30.2076 4.1342 30.2997 3.80751 30.484C3.4892 30.6683 3.22953 30.9364 3.02849 31.2882C2.83583 31.64 2.7395 32.0546 2.7395 32.5321C2.7395 33.0096 2.83583 33.4284 3.02849 33.7886C3.22953 34.1404 3.4892 34.4084 3.80751 34.5927C4.1342 34.777 4.47764 34.8692 4.83783 34.8692C5.2064 34.8692 5.54984 34.777 5.86815 34.5927C6.19484 34.4001 6.45451 34.1236 6.64717 33.7635C6.84821 33.4033 6.94873 32.9844 6.94873 32.507ZM16.168 32.3688C16.168 32.6284 16.1513 32.863 16.1177 33.0724H10.8279C10.8698 33.6252 11.075 34.0692 11.4436 34.4043C11.8122 34.7393 12.2645 34.9069 12.8006 34.9069C13.5713 34.9069 14.1157 34.5844 14.4341 33.9394H15.9795C15.7701 34.576 15.389 35.0995 14.8361 35.51C14.2917 35.912 13.6132 36.1131 12.8006 36.1131C12.1389 36.1131 11.5441 35.9665 11.0164 35.6733C10.4971 35.3718 10.0866 34.9529 9.78505 34.4168C9.49187 33.8723 9.34528 33.2441 9.34528 32.5321C9.34528 31.8201 9.48768 31.196 9.77249 30.6599C10.0657 30.1155 10.4719 29.6966 10.9913 29.4034C11.519 29.1103 12.1221 28.9637 12.8006 28.9637C13.454 28.9637 14.0362 29.1061 14.5471 29.3909C15.0581 29.6757 15.456 30.0778 15.7408 30.5971C16.0256 31.1081 16.168 31.6986 16.168 32.3688ZM14.6728 31.9164C14.6644 31.3887 14.4759 30.9657 14.1074 30.6474C13.7388 30.3291 13.2823 30.1699 12.7378 30.1699C12.2436 30.1699 11.8206 30.3291 11.4687 30.6474C11.1169 30.9573 10.9075 31.3803 10.8405 31.9164H14.6728Z" fill="#272727"/>
<path d="M122.356 30.2579H120.798L122.118 27.2674H123.123L122.356 30.2579ZM125.827 31.2128C124.956 30.7772 124.52 30.0903 124.52 29.1521C124.52 28.6998 124.633 28.2852 124.859 27.9082C125.085 27.5313 125.425 27.2339 125.877 27.0161C126.329 26.7899 126.882 26.6769 127.536 26.6769C128.181 26.6769 128.729 26.7899 129.182 27.0161C129.642 27.2339 129.986 27.5313 130.212 27.9082C130.438 28.2852 130.551 28.6998 130.551 29.1521C130.551 29.6212 130.43 30.0359 130.187 30.3961C129.952 30.7479 129.638 31.0201 129.244 31.2128C129.722 31.3887 130.099 31.6777 130.375 32.0798C130.652 32.4735 130.79 32.9384 130.79 33.4745C130.79 34.0189 130.652 34.5006 130.375 34.9194C130.099 35.3383 129.713 35.6607 129.219 35.8869C128.725 36.1131 128.164 36.2262 127.536 36.2262C126.907 36.2262 126.346 36.1131 125.852 35.8869C125.366 35.6607 124.985 35.3383 124.708 34.9194C124.432 34.5006 124.294 34.0189 124.294 33.4745C124.294 32.93 124.432 32.4609 124.708 32.0672C124.985 31.6735 125.358 31.3887 125.827 31.2128ZM129.182 29.3281C129.182 28.859 129.035 28.4988 128.742 28.2475C128.449 27.9962 128.047 27.8705 127.536 27.8705C127.033 27.8705 126.635 27.9962 126.342 28.2475C126.049 28.4988 125.902 28.8632 125.902 29.3406C125.902 29.7594 126.053 30.1029 126.354 30.3709C126.664 30.6306 127.058 30.7604 127.536 30.7604C128.013 30.7604 128.407 30.6264 128.717 30.3584C129.027 30.0903 129.182 29.7469 129.182 29.3281ZM127.536 31.841C126.983 31.841 126.53 31.9792 126.179 32.2557C125.835 32.5237 125.663 32.9132 125.663 33.4242C125.663 33.9017 125.831 34.2912 126.166 34.5927C126.501 34.8859 126.958 35.0325 127.536 35.0325C128.105 35.0325 128.553 34.8817 128.88 34.5802C129.215 34.2786 129.383 33.8933 129.383 33.4242C129.383 32.9216 129.211 32.5321 128.867 32.2557C128.532 31.9792 128.088 31.841 127.536 31.841ZM134.078 33.5122C134.162 33.931 134.342 34.2493 134.618 34.4671C134.895 34.6849 135.268 34.7938 135.737 34.7938C136.331 34.7938 136.767 34.5592 137.043 34.0901C137.32 33.6211 137.458 32.8211 137.458 31.6902C137.257 31.9751 136.972 32.197 136.604 32.3562C136.243 32.507 135.85 32.5824 135.422 32.5824C134.878 32.5824 134.384 32.4735 133.94 32.2557C133.496 32.0295 133.144 31.6986 132.884 31.263C132.633 30.8191 132.507 30.283 132.507 29.6547C132.507 28.7333 132.775 28.0004 133.312 27.4559C133.856 26.903 134.602 26.6266 135.548 26.6266C136.687 26.6266 137.496 27.0077 137.973 27.77C138.459 28.5239 138.702 29.6841 138.702 31.2505C138.702 32.3311 138.61 33.2148 138.425 33.9017C138.25 34.5885 137.94 35.1079 137.496 35.4597C137.052 35.8115 136.436 35.9874 135.649 35.9874C134.752 35.9874 134.061 35.7529 133.575 35.2838C133.09 34.8147 132.817 34.2242 132.759 33.5122H134.078ZM135.674 31.3761C136.176 31.3761 136.57 31.2212 136.855 30.9112C137.148 30.5929 137.295 30.1741 137.295 29.6547C137.295 29.0768 137.14 28.6286 136.83 28.3103C136.528 27.9836 136.114 27.8203 135.586 27.8203C135.058 27.8203 134.639 27.9878 134.329 28.3229C134.028 28.6495 133.877 29.0809 133.877 29.617C133.877 30.128 134.024 30.551 134.317 30.8861C134.618 31.2128 135.071 31.3761 135.674 31.3761Z" fill="#272727"/>
<rect x="103" y="25" width="8" height="8" rx="4" fill="#F6DCB8"/>
<rect x="31" y="40" width="8" height="8" rx="4" fill="#F6DCB8"/>
<path d="M53.6348 11.2295C54.1481 15.7557 48.3887 20.6289 42.6165 22.7545C45.3347 23.011 47.475 24.0995 47.7009 26.091C48.2347 30.7983 40.5441 34.4504 35.8211 34.9601C34.9356 35.0556 34.1688 34.5519 33.6521 33.948C33.603 34.503 33.7507 34.817 32.9758 34.9006C31.9427 35.0121 29.9706 34.4185 29.8269 33.1512C29.5353 30.5803 37.1172 15.1011 40.3386 8.92577C35.9071 11.0167 31.2995 14.8493 31.6198 17.6736C31.6691 18.1081 31.8988 18.4865 32.3908 18.8733C32.4728 18.9377 32.5179 19.0061 32.522 19.0424C32.5508 19.2958 32.0916 19.5286 31.5013 19.5923C30.2836 19.7237 28.3156 19.1664 28.0241 16.5955C27.5477 12.3952 34.2092 7.90118 41.8346 6.30861C41.9699 6.18406 42.1502 6.12794 42.3347 6.10803C42.4823 6.0921 42.6709 6.1084 42.8595 6.12471C43.4458 6.02479 44.032 5.92487 44.6224 5.86116C49.4191 5.34355 53.2118 7.49995 53.6348 11.2295ZM34.0823 32.1422C38.5551 31.403 44.4214 28.4608 44.1463 26.0348C43.9862 24.6226 41.7228 23.4374 38.4389 23.7918C38.07 23.8316 37.7256 23.7588 37.414 23.6458C35.9591 26.9549 34.7051 30.0591 34.0823 32.1422ZM38.668 20.8715C44.018 19.3046 50.5237 15.0839 50.0351 10.775C49.8051 8.74724 47.5376 7.19595 45.2786 7.36641C45.3237 7.43485 45.3361 7.54348 45.3443 7.61589C45.3566 7.72452 45.3361 7.87334 45.2336 7.95771C44.4466 8.92229 41.422 14.8565 38.668 20.8715Z" fill="#272727"/>
<path d="M71.1949 19.9272C71.2277 19.887 71.2974 19.8428 71.3712 19.8348C71.7033 19.799 72.224 20.1093 72.2569 20.399C72.2445 20.2904 67.5969 29.0388 64.1285 29.413C62.2467 29.6161 60.8648 28.2991 60.6431 26.3438C60.5733 25.7282 60.7658 24.7912 61.0895 23.6933C59.0443 27.0661 56.712 30.2134 55.1623 30.3806C53.0222 30.6115 51.5912 29.5198 51.3448 27.3472C50.9876 24.197 56.061 11.9573 60.8208 11.4437C63.0347 11.2048 64.8634 12.1803 65.7245 13.187C66.8393 11.1607 66.9459 10.7827 67.6469 10.7071C68.7169 10.5916 70.5333 11.4585 70.6196 12.2189C70.6319 12.3275 70.5704 12.4441 70.5089 12.5607C69.0989 14.2889 64.677 24.3691 64.9192 26.5055C64.948 26.7589 65.0751 26.8918 65.2596 26.8719C66.3296 26.7564 70.6989 20.4938 71.1949 19.9272ZM55.3585 27.1706C55.4119 27.6414 55.6293 27.9111 56.0351 27.8673C57.3266 27.728 62.3719 19.1933 64.2901 16.0174L64.3516 15.9008L64.4376 15.6716C64.4704 15.6314 64.5032 15.5912 64.4991 15.555C64.3964 14.6498 63.81 13.4302 62.9982 13.5178C60.194 13.8204 55.0382 24.3463 55.3585 27.1706Z" fill="#272727"/>
<path d="M83.0324 9.04681C85.1725 8.81587 86.6035 9.90763 86.8499 12.0802C87.2072 15.2304 82.1338 27.4701 77.4108 27.9797C75.0494 28.2345 73.1305 27.1221 72.3349 26.0351C71.7571 27.8568 72.3189 28.5292 71.0275 28.6686C69.9575 28.784 68.3011 28.3397 68.1697 27.181C67.9192 24.9722 80.4318 1.26388 81.2188 0.299298C81.3499 0.138533 81.5631 0.0422229 81.8583 0.0103695C82.9283 -0.105099 84.7078 0.7658 84.794 1.5262C84.8063 1.63483 84.7818 1.74744 84.6834 1.86801C83.2406 3.63642 78.9002 11.472 75.6667 18.1984C78.0028 14.0978 81.1138 9.25385 83.0324 9.04681ZM73.6874 23.7999C73.7901 24.7052 74.3848 25.9972 75.2334 25.9056C78.0008 25.6069 83.1524 15.0449 82.8321 12.2205C82.7828 11.786 82.5655 11.5163 82.1965 11.5561C80.8313 11.7034 75.4212 20.9739 73.6874 23.7999Z" fill="#272727"/>
<path d="M102.422 7.17439C102.553 7.01363 102.766 6.91732 103.024 6.88945C104.094 6.77398 105.911 7.64089 105.997 8.40129C106.009 8.50992 105.985 8.62253 105.886 8.7431C101.689 13.8876 98.2449 34.8946 88.2825 35.9697C85.589 36.2603 83.3993 34.4074 83.2063 32.7056C83.079 31.5831 83.5504 31.1291 83.8825 31.0932C84.067 31.0733 84.2269 31.166 84.2474 31.3471C84.346 32.2161 85.8714 33.8108 87.3473 33.6515C90.705 33.2892 93.9017 26.5667 96.6556 19.892C94.3685 23.4375 91.9461 26.4479 90.2119 26.635C88.367 26.8341 86.9851 25.5171 86.7633 23.5618C86.4061 20.4116 92.3407 9.17857 93.1277 8.21399C93.2588 8.05322 93.472 7.95691 93.7303 7.92904C94.8003 7.81357 96.6167 8.68049 96.7029 9.44089C96.7152 9.54952 96.6907 9.66212 96.5923 9.7827C95.1823 11.5109 90.7931 21.5509 91.0354 23.6872C91.0682 23.9769 91.1585 24.1138 91.3799 24.0899C92.8927 23.9266 97.8765 15.1787 100.614 10.3383C101.278 8.94716 101.864 7.85764 102.422 7.17439Z" fill="#272727"/>
<path d="M51.4953 50.4628C54.0529 50.1848 59.3561 41.9686 59.0508 39.2574C58.9848 38.6712 58.6471 38.3371 57.9799 38.4096C54.8663 38.748 46.6058 45.6909 47.0018 49.2082C47.472 53.3849 55.1697 54.1058 55.5822 57.7696C56.0236 61.6899 50.5465 65.0296 47.2476 65.3882C43.8746 65.7548 42.1855 62.749 42.0164 61.2468C41.9628 60.7705 42.0368 60.4287 42.2963 60.4005C42.5928 60.3682 43.8451 61.8268 47.0328 61.4804C50.2205 61.1339 53.3461 59.2365 53.2388 58.2839C53.0903 56.965 43.4815 54.9312 42.9163 49.9118C42.2893 44.3429 49.8085 37.1468 55.5167 36.5263C58.7043 36.1799 61.7606 37.9987 62.0246 40.3435C62.3216 42.9814 57.8422 51.8498 53.4684 52.3252C52.3564 52.4461 51.2607 51.3784 51.1947 50.7922C51.1741 50.609 51.2729 50.487 51.4953 50.4628Z" fill="#272727"/>
<path d="M78.6933 51.104C78.7262 51.0633 78.7963 51.0186 78.8704 51.0105C79.1669 50.9783 79.6983 51.3656 79.7271 51.6221C79.7354 51.6953 79.7395 51.732 79.7066 51.7726C79.1466 52.464 74.8977 60.3801 71.5988 60.7387C69.7455 60.9401 68.3409 59.7948 68.0975 57.6332C67.7097 54.1892 73.2888 45.4238 73.1774 44.4346C73.1692 44.3613 73.128 44.3287 73.0909 44.3327C71.6824 44.4858 60.5691 59.0819 60.8331 61.4267C60.9073 61.7524 60.5161 61.9433 59.9601 62.0037C58.8852 62.1206 57.1841 61.675 57.0521 60.5026C56.8005 58.2677 69.3701 34.2788 70.1607 33.3028C70.2925 33.1402 70.5066 33.0427 70.8031 33.0105C71.878 32.8937 73.6656 33.7749 73.7523 34.5443C73.7646 34.6542 73.74 34.7681 73.6411 34.8901C72.06 36.8421 66.9588 46.186 63.7105 53.3259C67.2845 48.0791 72.1309 42.1377 73.6877 41.9685C75.2815 41.7953 77.1928 43.1081 77.333 44.3538C77.564 46.4055 72.1869 55.9648 72.3973 57.8334C72.4261 58.0898 72.5127 58.1917 72.7351 58.1675C73.7729 58.0547 78.1992 51.714 78.6933 51.104Z" fill="#272727"/>
<path d="M94.5196 49.3838C94.5855 49.3024 94.6926 49.2537 94.7667 49.2457C95.1003 49.2094 95.5534 49.5681 95.5823 49.8246C95.5905 49.8978 95.5617 49.9751 95.5288 50.0158C95.1047 50.5811 92.9307 54.2664 89.0018 55.0272C87.3136 57.3617 85.2341 59.2196 83.1213 59.4492C80.9715 59.6829 78.3765 57.9623 78.0754 55.2877C77.5721 50.8179 82.9616 41.3685 84.4443 41.2073C84.9261 41.1549 85.5439 41.3103 86.0629 41.5877C86.8124 40.9128 87.6566 40.4131 88.472 40.3245C91.3261 40.0143 93.1469 42.1899 93.3861 44.3149C93.5676 45.927 92.2463 49.8534 90.1259 53.3474C92.1726 52.5316 93.762 50.3191 94.5196 49.3838ZM81.6711 56.5658C81.7618 57.3718 82.1161 57.8525 82.8574 57.7719C83.6729 57.6833 84.8176 56.5204 86.0158 54.8326C84.4878 54.257 83.359 52.8962 82.9056 50.8686C82.0741 53.1471 81.5267 55.2834 81.6711 56.5658ZM85.1418 49.7355C85.3274 51.3842 86.0031 52.7201 87.0781 53.2708C89.2686 49.732 91.2941 45.0615 91.0589 42.9731C90.9764 42.2404 90.5933 41.837 89.8891 41.9135C87.9246 42.1271 84.7994 46.6946 85.1418 49.7355Z" fill="#272727"/>
<path d="M106.151 38.4771C108.301 38.2434 109.738 39.3481 109.982 41.5097C110.345 44.7339 105.248 57.1184 100.467 57.6381C98.1685 57.8879 96.2038 56.7663 95.4087 55.703C93.1527 60.992 91.3126 65.9761 91.4735 67.405C91.5065 67.6981 91.1194 67.9256 90.6005 67.982C89.5256 68.0989 87.8245 67.6533 87.6884 66.4442C87.4368 64.2093 98.5237 40.3816 99.3143 39.4056C99.4461 39.243 99.6602 39.1455 99.9568 39.1133C101.032 38.9964 102.819 39.8776 102.906 40.647C102.931 40.8669 101.955 42.1968 101.02 43.8931C102.873 41.0215 104.779 38.6262 106.151 38.4771ZM96.7592 53.3682C96.8623 54.2841 97.3897 55.6361 98.2793 55.5394C101.059 55.2372 106.234 44.5502 105.913 41.6924C105.859 41.2161 105.678 40.9391 105.27 40.9835C103.936 41.1285 98.4679 50.5493 96.7592 53.3682Z" fill="#272727"/>
</svg>
