<svg width="40" height="40" viewBox="0 0 40 40" fill="none" xmlns="http://www.w3.org/2000/svg">
<mask id="mask0_365_1901" style="mask-type:luminance" maskUnits="userSpaceOnUse" x="8" y="8" width="24" height="24">
<path d="M8 32H32V8H8V32Z" fill="white"/>
</mask>
<g mask="url(#mask0_365_1901)">
<path d="M14.3516 30.4896C11.232 30.4896 8.70312 27.9607 8.70312 24.8411V17.5522C8.70312 14.893 10.8588 12.7373 13.518 12.7373H15.1851C17.8443 12.7373 20 14.893 20 17.5522V24.8411C20 27.9607 17.4711 30.4896 14.3516 30.4896Z" stroke="#2E3331" stroke-width="1.40625" stroke-miterlimit="10"/>
<path d="M14.3512 25.6479C13.0143 25.6479 11.9305 24.5641 11.9305 23.2271V17.552C11.9305 16.6755 12.6411 15.9648 13.5177 15.9648H15.1848C16.0613 15.9648 16.772 16.6755 16.772 17.552V23.2271C16.772 24.5641 15.6882 25.6479 14.3512 25.6479Z" stroke="#2E3331" stroke-width="1.40625" stroke-miterlimit="10"/>
<path d="M10.3172 20.8066C12.7578 22.4439 15.9457 22.4439 18.3864 20.8066" stroke="#2E3331" stroke-width="1.40625" stroke-miterlimit="10"/>
<path d="M25.6496 27.262C22.53 27.262 20.0012 24.7331 20.0012 21.6136V14.3247C20.0012 11.6655 22.1569 9.50977 24.8161 9.50977H26.4831C29.1424 9.50977 31.298 11.6655 31.298 14.3247V21.6136C31.298 24.7331 28.7692 27.262 25.6496 27.262Z" stroke="#2E3331" stroke-width="1.40625" stroke-miterlimit="10"/>
<path d="M25.6481 22.4203C24.3112 22.4203 23.2273 21.3365 23.2273 19.9996V14.3245C23.2273 13.4479 23.938 12.7373 24.8146 12.7373H26.4816C27.3582 12.7373 28.0689 13.4479 28.0689 14.3245V19.9996C28.0689 21.3365 26.985 22.4203 25.6481 22.4203Z" stroke="#2E3331" stroke-width="1.40625" stroke-miterlimit="10"/>
<path d="M21.6141 17.5791C24.0547 19.2163 27.2426 19.2163 29.6833 17.5791" stroke="#2E3331" stroke-width="1.40625" stroke-miterlimit="10"/>
</g>
</svg>
