<svg width="40" height="40" viewBox="0 0 40 40" fill="none" xmlns="http://www.w3.org/2000/svg">
<path d="M17.8918 25.5781H22.1106" stroke="#2E3331" stroke-width="1.40625" stroke-miterlimit="10"/>
<mask id="mask0_365_1920" style="mask-type:luminance" maskUnits="userSpaceOnUse" x="8" y="8" width="24" height="24">
<path d="M8 8.00001H32V32H8V8.00001Z" fill="white"/>
</mask>
<g mask="url(#mask0_365_1920)">
<path d="M26.3295 19.9531H29.142V15.1277C29.142 13.7998 28.5168 12.5495 27.4545 11.7527L23.517 8.7996C21.2602 9.70232 18.7426 9.70232 16.4857 8.7996L12.5482 11.7527C11.4859 12.5495 10.8607 13.7998 10.8607 15.1277V19.9531H13.6732" stroke="#2E3331" stroke-width="1.40625" stroke-miterlimit="10"/>
<path d="M24.642 9.64335C25.7043 10.4401 26.3295 11.6905 26.3295 13.0184V29.1875C26.3295 30.3525 25.3851 31.2969 24.2201 31.2969C23.0551 31.2969 22.1107 30.3525 22.1107 29.1875V22.7656H17.892V29.1875C17.892 30.3525 16.9476 31.2969 15.7826 31.2969C14.6176 31.2969 13.6732 30.3525 13.6732 29.1875V13.0184C13.6732 11.6905 14.2984 10.4401 15.3607 9.64335" stroke="#2E3331" stroke-width="1.40625" stroke-miterlimit="10"/>
<path d="M23.517 8.79883C23.517 10.7405 21.943 12.3145 20.0014 12.3145C18.0598 12.3145 16.4857 10.7405 16.4857 8.79883" stroke="#2E3331" stroke-width="1.40625" stroke-miterlimit="10"/>
<path d="M20.0014 12.3152V22.7656" stroke="#2E3331" stroke-width="1.40625" stroke-miterlimit="10"/>
</g>
</svg>
