<svg width="1920" height="750" viewBox="0 0 1920 750" fill="none" xmlns="http://www.w3.org/2000/svg">
<path d="M1577.55 173.673C1607.98 173.673 1641.71 174.786 1663.67 189.747C1681.47 201.979 1686.64 220.075 1690.94 237.766L1745.34 455.621C1752.52 484.534 1758.83 516.277 1736.44 541.348C1706.3 574.708 1640.28 578.448 1584.01 578.651L398.873 582.593C357.595 584.093 316.224 581.438 276.01 574.708C255.91 571.28 237.061 564.907 220.689 556.007C204.318 547.106 190.792 535.877 180.992 523.05C162.62 495.35 169.079 463.102 175.969 432.875L214.005 266.679C216.986 244.409 226.154 222.769 240.989 202.99C282.9 155.072 377.63 168.72 444.372 169.023C536.041 169.023 627.758 169.394 719.522 170.135L1275.28 172.46L1577.55 173.673Z" fill="#F0F5F7"/>
</svg>
